# xmcd
# 
# Track frame offsets:
#     150
#     25208
#     83016
#     116079
#     141352
#     143955
#     162722
#     181661
#     186720
#     199911
#     217410
# 
# Disc length: 4065
# 
# Revision: 2
# Processed by: cddbd v1.5.2PL0 Copyright (c) Steve Scherf et al.
# Submitted via: fre:ac v1.0.31
# 
DISCID=b10fdf0b
DTITLE=Neil Young - Neil Young - Bluenote Cafe Disc 2
DYEAR=2015
DGENRE=Rock/Pop
TTITLE0=I'm Goin'
TTITLE1=Ordinary People
TTITLE2=Crime In The City
TTITLE3=Crime Of The Heart
TTITLE4=Welcome Rap
TTITLE5=Doghouse
TTITLE6=Fool For Your Love
TTITLE7=Encore Rap
TTITLE8=On The Way Home
TTITLE9=Sunny Inside
TTITLE10=Tonight's The Night
EXTD=
EXTT0=
EXTT1=
EXTT2=
EXTT3=
EXTT4=
EXTT5=
EXTT6=
EXTT7=
EXTT8=
EXTT9=
EXTT10=
PLAYORDER=
